<?xml version="1.0" encoding="UTF-8"?>
<svg width="41px" height="76px" viewBox="0 0 41 76" version="1.1" xmlns="http://www.w3.org/2000/svg" xmlns:xlink="http://www.w3.org/1999/xlink">
    <!-- Generator: Sketch 47 (45396) - http://www.bohemiancoding.com/sketch -->
    <title>facebook</title>
    <desc>Created with Sketch.</desc>
    <defs></defs>
    <g id="Page-1" stroke="none" stroke-width="1" fill="none" fill-rule="evenodd">
        <g id="facebook" transform="translate(-1.000000, 0.000000)" fill-rule="nonzero" fill="#FFFFFF">
            <path d="M40.979,4.248 C41.036,4.602 41.058,4.957 41.06,5.323 C41.059,6.151 40.95,7.039 40.789,7.969 C40.627,8.898 40.408,9.862 40.172,10.8 C39.699,12.671 39.148,14.444 38.827,15.502 C38.822,15.52 38.811,15.535 38.806,15.552 C38.799,15.572 38.797,15.591 38.789,15.609 C38.776,15.643 38.757,15.672 38.742,15.704 C38.719,15.753 38.696,15.802 38.67,15.846 C38.643,15.892 38.612,15.935 38.581,15.977 C38.55,16.018 38.52,16.058 38.486,16.096 C38.452,16.135 38.414,16.171 38.374,16.207 C38.338,16.241 38.302,16.274 38.262,16.303 C38.22,16.334 38.176,16.363 38.132,16.39 C38.089,16.416 38.047,16.441 38.002,16.463 C37.956,16.486 37.908,16.505 37.859,16.522 C37.813,16.54 37.765,16.557 37.717,16.57 C37.668,16.583 37.617,16.593 37.566,16.601 C37.517,16.61 37.467,16.617 37.415,16.621 C37.362,16.624 37.311,16.623 37.258,16.622 C37.208,16.62 37.157,16.618 37.105,16.612 C37.052,16.605 36.999,16.593 36.945,16.58 C36.911,16.572 36.877,16.571 36.843,16.56 C36.824,16.555 36.809,16.544 36.79,16.538 C36.772,16.531 36.753,16.529 36.736,16.522 C34.409,15.623 32.551,15.223 31.198,15.227 C30.436,15.228 29.841,15.345 29.368,15.541 C28.894,15.739 28.526,16.005 28.186,16.399 C27.962,16.662 27.753,16.976 27.565,17.374 C27.315,17.905 27.103,18.55 26.949,19.346 C26.789,20.164 26.691,21.087 26.653,22.172 C28.775,22.208 31.457,22.145 33.23,22.145 C33.807,22.145 34.288,22.001 34.626,22.001 C34.964,22.001 35.154,22.001 35.154,22.001 C35.58,22.001 35.984,22.307 36.284,22.606 C36.585,22.905 36.752,23.45 36.751,23.875 L36.733,33.656 C36.732,34.081 36.561,34.487 36.258,34.785 C35.955,35.083 35.546,35.248 35.121,35.242 C35.121,35.242 34.987,35.241 34.746,35.238 C34.507,35.235 34.162,35.231 33.746,35.228 C32.912,35.221 31.788,35.214 30.633,35.214 C29.645,35.213 28.629,35.219 27.757,35.234 C27.804,39.219 27.886,47.775 27.96,55.837 C28.047,65.212 28.121,73.903 28.121,73.903 C28.125,74.329 27.962,74.732 27.663,75.034 C27.365,75.337 26.965,75.507 26.54,75.509 L12.406,75.58 C11.981,75.582 11.571,75.414 11.271,75.114 C10.97,74.812 10.804,74.403 10.808,73.979 C10.808,73.977 10.811,73.649 10.816,73.036 C10.822,72.422 10.828,71.537 10.836,70.424 C10.848,68.192 10.863,65.093 10.863,61.537 C10.863,53.102 10.785,42.231 10.455,34.977 C8.224,34.933 5.322,35 3.767,35 C3.082,35 2.659,35 2.658,35 C1.78,35 1.068,34.226 1.062,33.346 L0.999,22.786 C0.996,22.361 1.168,21.946 1.47,21.647 C1.773,21.35 2.189,21.182 2.613,21.188 C2.615,21.188 2.699,21.189 2.857,21.192 C3.015,21.194 3.242,21.196 3.523,21.199 C4.086,21.205 4.859,21.21 5.704,21.21 C6.67,21.21 7.731,21.203 8.667,21.181 C8.747,19.084 8.896,16.921 9.291,14.798 C9.781,12.173 10.65,9.587 12.283,7.34 C13.368,5.844 14.793,4.515 16.601,3.464 C20.192,1.37 24.055,0.626 27.701,0.627 C32.349,0.63 36.68,1.815 39.957,3.011 C40.494,3.208 40.886,3.682 40.979,4.248 Z" id="Shape"></path>
        </g>
    </g>
</svg>