<?xml version="1.0" encoding="UTF-8"?>
<svg width="70px" height="70px" viewBox="0 0 70 70" version="1.1" xmlns="http://www.w3.org/2000/svg" xmlns:xlink="http://www.w3.org/1999/xlink">
    <!-- Generator: Sketch 47 (45396) - http://www.bohemiancoding.com/sketch -->
    <title>instagram</title>
    <desc>Created with Sketch.</desc>
    <defs></defs>
    <g id="Page-1" stroke="none" stroke-width="1" fill="none" fill-rule="evenodd">
        <g id="instagram" transform="translate(0.000000, -1.000000)" fill-rule="nonzero" fill="#FFFFFF">
            <g id="Group" transform="translate(0.000000, 0.637820)">
                <path d="M17,0.36219 C7.6339,0.36219 0,7.99609 0,17.36217 L0,53.3622 C0,62.7283 7.6339,70.3622 17,70.3622 L53,70.3622 C62.3661,70.3622 70,62.7283 70,53.3622 L70,17.36217 C70,7.99609 62.3661,0.36219 53,0.36219 L17,0.36219 L17,0.36219 Z M17,6.36219 L53,6.36219 C59.1459,6.36219 64,11.21629 64,17.36217 L64,53.3622 C64,59.5081 59.1459,64.3622 53,64.3622 L17,64.3622 C10.8541,64.3622 6,59.5081 6,53.3622 L6,17.36217 C6,11.21629 10.8541,6.36219 17,6.36219 L17,6.36219 Z M55,12.36217 C52.7908,12.36217 51,14.15297 51,16.36217 C51,18.57127 52.7908,20.36217 55,20.36217 C57.2091,20.36217 59,18.57127 59,16.36217 C59,14.15297 57.2091,12.36217 55,12.36217 Z M35,18.36217 C25.6467,18.36217 18,26.00887 18,35.3622 C18,44.7155 25.6467,52.3622 35,52.3622 C44.3533,52.3622 52,44.7155 52,35.3622 C52,26.00887 44.3533,18.36217 35,18.36217 Z M35,24.36217 C41.1107,24.36217 46,29.25157 46,35.3622 C46,41.4728 41.1107,46.3622 35,46.3622 C28.8893,46.3622 24,41.4728 24,35.3622 C24,29.25157 28.8893,24.36217 35,24.36217 Z" id="Shape"></path>
            </g>
        </g>
    </g>
</svg>